# AST/ASF file generated using VICON BodyLanguage
# -----------------------------------------------
:version 1.10
:name VICON
:units
  mass 1.0
  length 0.45
  angle deg
:documentation
   .ast/.asf automatically generated from VICON data using
   VICON BodyBuilder and BodyLanguage model FoxedUp or BRILLIANT.MOD
:root
   order TX TY TZ RX RY RZ
   axis XYZ
   position 0 0 0  
   orientation 0 0 0 
:bonedata
  begin
     id 1 
     name lhipjoint
     direction 0.623529 -0.717805 0.309788 
     length 2.23224 
     axis 0 0 0  XYZ
  end
  begin
     id 2 
     name lfemur
     direction 0.34202 -0.939693 0  
     length 7.11402  
     axis 0 0 20  XYZ
    dof rx ry rz
    limits (-160.0 20.0)
           (-70.0 70.0)
           (-60.0 70.0)
  end
  begin
     id 3 
     name ltibia
     direction 0.34202 -0.939693 0   
     length 6.78496   
     axis 0 0 20   XYZ
    dof rx
    limits (-10.0 170.0)
  end
  begin
     id 4 
     name lfoot
     direction 0.125078 -0.343648 0.930732   
     length 1.84054   
     axis -90 7.62852e-016 20   XYZ
    dof rx rz
    limits (-45.0 90.0)
           (-70.0 20.0)
  end
  begin
     id 5 
     name ltoes
     direction 1.53565e-011 -4.21893e-011 1   
     length 0.916474   
     axis -90 7.62852e-016 20   XYZ
    dof rx
    limits (-90.0 20.0)
  end
  begin
     id 6 
     name rhipjoint
     direction -0.564688 -0.757748 0.327026   
     length 2.11457  
     axis 0 0 0  XYZ 
  end
  begin
     id 7 
     name rfemur
     direction -0.34202 -0.939693 0   
     length 7.14609   
     axis 0 0 -20   XYZ
    dof rx ry rz
    limits (-160.0 20.0)
           (-70.0 70.0)
           (-70.0 60.0)
  end
  begin
     id 8 
     name rtibia
     direction -0.34202 -0.939693 0   
     length 6.78101   
     axis 0 0 -20   XYZ
    dof rx
    limits (-10.0 170.0)
 end
 begin
     id 9 
     name rfoot
     direction -0.0992671 -0.272734 0.956955   
     length 1.96168  
     axis -90 -7.62852e-016 -20   XYZ
    dof rx rz
    limits (-45.0 90.0)
           (-20.0 70.0)
  end
  begin
     id 10 
     name rtoes
     direction -1.5356e-011 -4.21891e-011 1   
     length 0.982933   
     axis -90 -7.62852e-016 -20   XYZ
    dof rx
    limits (-90.0 20.0)
  end
  begin
     id 11 
     name lowerback
     direction -0.00596953 0.998668 0.0512524   
     length 1.87557   
     axis 0 0 0   XYZ
    dof rx ry rz
    limits (-20.0 45.0)
           (-30.0 30.0)
           (-30.0 30.0)
  end
  begin
     id 12 
     name upperback
     direction 0.00584879 0.999652 0.0257308   
     length 1.87883   
     axis 0 0 0   XYZ
    dof rx ry rz
    limits (-20.0 45.0)
           (-30.0 30.0)
           (-30.0 30.0)
  end
  begin
     id 13 
     name thorax
     direction 0.010104 0.999947 0.00178881   
     length 1.87779   
     axis 0 0 0   XYZ
    dof rx ry rz
    limits (-20.0 45.0)
           (-30.0 30.0)
           (-30.0 30.0)
  end
  begin
     id 14 
     name lowerneck
     direction 0.0120771 0.995934 -0.0892773   
     length 1.40897   
     axis 0 0 0   XYZ
    dof rx ry rz
    limits (-20.0 45.0)
           (-30.0 30.0)
           (-30.0 30.0)
  end
  begin
     id 15 
     name upperneck
     direction -0.030568 0.999465 -0.0116366   
     length 1.38661   
     axis 0 0 0   XYZ
    dof rx ry rz
    limits (-20.0 45.0)
           (-30.0 30.0)
           (-30.0 30.0)
  end
  begin
     id 16
     name head
     direction -0.0170715 0.999854 -0.00104426  
     length 1.47052  
     axis 0 0 0   XYZ
    dof rx ry rz
    limits (-20.0 45.0)
           (-30.0 30.0)
           (-30.0 30.0)
  end
  begin
     id 17 
     name lclavicle
     direction 0.977763 0.206143 0.038532  
     length 3.02424  
     axis 0 0 0   XYZ
    dof ry rz
    limits (-20.0 10.0)
           (0.0 20.0)
  end
  begin
     id 18 
     name lhumerus
     direction 1 -4.48965e-011 -2.62654e-027   
     length 4.68382   
     axis 180 -30 -90   XYZ
    dof rx ry rz
    limits (-60.0 90.0)
           (-90.0 90.0)
           (-90.0 90.0)
  end
  begin
     id 19
     name lradius
     direction 1 -4.48973e-011 -1.54954e-027   
     length 2.98124   
     axis 180 -30 -90   XYZ
    dof rx
    limits (-10.0 170.0)
  end
  begin
     id 20
     name lwrist
     direction 1 -4.48959e-011 7.20928e-028   
     length 1.49062   
     axis -5.52449e-016 90 90   XYZ
    dof ry
    limits (-180.0 0.0)
 end
  begin
     id 21 
     name lhand
     direction 1 -4.48971e-011 1.44186e-027   
     length 0.707595   
     axis -9.20027e-016 90 90   XYZ
    dof rx rz
    limits (-90.0 90.0)
           (-45.0 45.0)
  end
  begin
     id 22 
     name lfingers
     direction 1 -4.48985e-011 2.88371e-027   
     length 0.570481   
     axis -1.84005e-015 90 90   XYZ
    dof rx
    limits (0.0 90.0)
  end
  begin
     id 23
     name lthumb
     direction 0.707107 -6.34929e-011 0.707107   
     length 0.819101   
     axis -90 45 2.85299e-015   XYZ
    dof rx rz
    limits (-45.0 45.0)
           (-45.0 45.0)
  end
  begin
     id 24 
     name rclavicle
     direction -0.958661 0.284411 -0.00895327   
     length 3.11921  
     axis 0 0 0   XYZ 
    dof ry rz
    limits (-10.0 20.0)
           (-20.0 0.0)
  end
  begin
     id 25 
     name rhumerus
     direction -1 -4.48963e-011 -4.22193e-027  
     length 4.75876   
     axis 180 30 90   XYZ
    dof rx ry rz
    limits (-90.0 60.0)
           (-90.0 90.0)
           (-90.0 90.0)
  end
  begin
     id 26 
     name rradius
     direction -1 -4.48968e-011 -1.07616e-027   
     length 2.93293   
     axis 180 30 90   XYZ
    dof rx
    limits (-10.0 170.0)
  end
  begin
     id 27 
     name rwrist
     direction -1 -4.48965e-011 7.20928e-028   
     length 1.46647   
     axis -5.52449e-016 -90 -90   XYZ
    dof ry
    limits (-180.0 0.0)
  end
  begin
     id 28
     name rhand
     direction -1 -4.48971e-011 1.44186e-027   
     length 0.831748   
     axis -9.20027e-016 -90 -90   XYZ
    dof rx rz
    limits (-90.0 90.0)
           (-45.0 45.0)
  end
  begin
     id 29
     name rfingers
     direction -1 -4.48961e-011 2.88371e-027   
     length 0.670577   
     axis -1.84005e-015 -90 -90   XYZ
    dof rx
    limits (0.0 90.0)
  end
  begin
     id 30
     name rthumb
     direction -0.707107 -6.34929e-011 0.707107   
     length 0.962818   
     axis -90 -45 -2.85299e-015   XYZ
    dof rx rz
    limits (-45.0 45.0)
           (-45.0 45.0)
  end
:hierarchy
  begin
    root lhipjoint rhipjoint lowerback
    lhipjoint lfemur
    lfemur ltibia
    ltibia lfoot
    lfoot ltoes
    rhipjoint rfemur
    rfemur rtibia
    rtibia rfoot
    rfoot rtoes
    lowerback upperback
    upperback thorax
    thorax lowerneck lclavicle rclavicle
    lowerneck upperneck
    upperneck head
    lclavicle lhumerus
    lhumerus lradius
    lradius lwrist
    lwrist lhand lthumb
    lhand lfingers
    rclavicle rhumerus
    rhumerus rradius
    rradius rwrist
    rwrist rhand rthumb
    rhand rfingers
  end

#!OML:ASF E:\id_vita\Project 1\Capture day 1\Session 1\Female.ASF
:FULLY-SPECIFIED
:DEGREES
451
root 36.0727 16.499 -0.829967 -140.339 -86.2436 155.915
lowerback -13.1747 -0.718159 -4.64627
upperback -5.43737 -0.665345 0.845219
thorax 1.71322 -0.378737 3.40633
lowerneck 5.68714 1.3227 -2.74193
upperneck -1.87043 1.67013 3.25435
head -1.61474 0.781214 1.44401
rclavicle -2.62147e-015 1.55052e-014
rhumerus -37.8284 -22.669 -76.5379
rradius 22.115
rwrist 18.5721
rhand -15.4232 12.1043
rfingers 7.12502
rthumb 10.7565 -17.6003
lclavicle -2.62147e-015 1.55052e-014
lhumerus -24.4128 29.7172 80.0049
lradius 18.5829
lwrist -40.5203
lhand -7.23623 24.0049
lfingers 7.12502
lthumb 18.6436 53.1314
rfemur -41.5455 0.394943 20.5986
rtibia 54.85
rfoot -6.77301 -12.0802
rtoes -4.56705
lfemur -19.3754 -11.2022 -24.9593
ltibia 29.1057
lfoot -22.0628 7.01333
ltoes 2.33936
452
root 35.9555 16.4995 -0.830694 -139.725 -86.3219 155.322
lowerback -13.2112 -0.842711 -4.67665
upperback -5.327 -0.817011 0.8738
thorax 1.86362 -0.456894 3.43048
lowerneck 5.85173 1.41883 -3.03258
upperneck -2.1673 1.79285 3.60766
head -1.75507 0.835112 1.60689
rclavicle 2.26118e-015 -5.1684e-015
rhumerus -37.5416 -22.674 -76.6546
rradius 22.0532
rwrist 18.7253
rhand -15.3176 12.4516
rfingers 7.12502
rthumb 10.8584 -17.2477
lclavicle 2.26118e-015 -5.1684e-015
lhumerus -23.2635 28.628 80.9232
lradius 19.0403
lwrist -39.3395
lhand -6.92367 23.7524
lfingers 7.12502
lthumb 18.9442 52.8499
rfemur -42.1197 0.897264 20.5196
rtibia 52.6012
rfoot -7.25195 -12.2287
rtoes -2.60676
lfemur -18.6933 -11.2629 -25.063
ltibia 28.8588
lfoot -22.2532 7.21762
ltoes 2.42072
453
root 35.8392 16.4942 -0.830799 -139.494 -86.3149 155.127
lowerback -13.1075 -0.945988 -4.85303
upperback -5.2746 -0.935531 1.00052
thorax 1.87687 -0.512514 3.64654
lowerneck 5.75063 1.44216 -3.25032
upperneck -2.27763 1.81887 3.74172
head -1.77968 0.848167 1.68898
rclavicle -5.684e-016 4.17448e-015
rhumerus -37.2775 -22.2429 -76.8221
rradius 22.0622
rwrist 18.8987
rhand -15.7327 12.6569
rfingers 7.12502
rthumb 10.458 -17.0629
lclavicle -5.684e-016 4.17448e-015
lhumerus -22.2273 27.8073 81.8347
lradius 19.5194
lwrist -38.4292
lhand -6.1641 24.2065
lfingers 7.12502
lthumb 19.6746 53.2309
rfemur -42.6868 1.44496 20.3797
rtibia 50.2507
rfoot -6.78755 -11.9163
rtoes -4.6209
lfemur -18.1771 -11.2644 -25.2208
ltibia 28.5368
lfoot -22.1039 7.35727
ltoes 2.47468
454
root 35.7213 16.495 -0.83496 -138.052 -86.3594 153.635
lowerback -13.2293 -1.03925 -4.95047
upperback -5.00459 -1.0199 0.969667
thorax 2.23555 -0.562275 3.65388
lowerneck 5.60564 1.37528 -3.04563
upperneck -2.58238 1.75295 3.64868
head -1.84545 0.816623 1.62612
rclavicle 4.87488e-015 -7.95139e-015
rhumerus -36.846 -22.1777 -77.1261
rradius 22.2653
rwrist 18.5965
rhand -15.3194 12.4942
rfingers 7.12502
rthumb 10.8567 -17.2052
lclavicle 4.87488e-015 -7.95139e-015
lhumerus -20.8989 26.2867 82.8221
lradius 19.9239
lwrist -37.3668
lhand -6.1686 24.6643
lfingers 7.12502
lthumb 19.6703 53.6891
rfemur -43.0715 1.94586 20.1776
rtibia 47.7858
rfoot -6.51623 -11.7696
rtoes -4.57334
lfemur -17.505 -11.0571 -25.4381
ltibia 28.1554
lfoot -22.0097 7.04113
ltoes 2.82025
455
root 35.6022 16.4923 -0.841726 -135.696 -86.4591 151.253
lowerback -12.672 -1.08521 -5.21089
upperback -5.28775 -1.09534 1.00094
thorax 1.64705 -0.579887 3.83094
lowerneck 5.88063 1.31479 -2.98018
upperneck -2.5482 1.67054 3.69701
head -1.88069 0.770683 1.6329
rclavicle 6.44497e-015 -1.76918e-014
rhumerus -37.4229 -21.7437 -77.0549
rradius 22.5905
rwrist 18.2077
rhand -15.2238 12.4228
rfingers 7.12502
rthumb 10.9489 -17.2717
lclavicle 6.44497e-015 -1.76918e-014
lhumerus -20.6593 24.065 83.6687
lradius 20.5149
lwrist -36.165
lhand -7.1228 24.1605
lfingers 7.12502
lthumb 18.7527 53.2766
rfemur -43.4022 2.43037 19.9316
rtibia 45.2435
rfoot -6.29182 -11.6235
rtoes -4.4282
lfemur -16.8006 -10.9678 -25.6202
ltibia 27.7001
lfoot -22.0527 6.92023
ltoes 2.40937
456
root 35.4849 16.4822 -0.845697 -132.166 -86.5279 147.807
lowerback -12.9472 -1.21704 -5.38455
upperback -4.89199 -1.20349 0.943816
thorax 2.22454 -0.648373 3.8472
lowerneck 5.28111 1.32059 -3.1593
upperneck -2.89179 1.70455 4.08287
head -1.89556 0.785282 1.79153
rclavicle -7.85627e-016 -1.33186e-014
rhumerus -36.6226 -21.5727 -77.647
rradius 22.7383
rwrist 17.9586
rhand -15.2307 12.2395
rfingers 7.12502
rthumb 10.9423 -17.4554
lclavicle -7.85627e-016 -1.33186e-014
lhumerus -19.1736 22.7237 84.5778
lradius 21.0853
lwrist -35.6532
lhand -7.15714 24.3137
lfingers 7.12502
lthumb 18.7197 53.4329
rfemur -43.7916 2.88465 19.5635
rtibia 42.6058
rfoot -6.00912 -11.2528
rtoes -4.23287
lfemur -16.1916 -11.2088 -25.8191
ltibia 27.1988
lfoot -22.2649 7.02405
ltoes 2.87899
457
root 35.3663 16.4667 -0.850073 -129.113 -86.5738 144.777
lowerback -12.9162 -1.37571 -5.80039
upperback -4.85372 -1.36711 1.147
thorax 2.27544 -0.726719 4.2726
lowerneck 5.70031 1.38967 -3.67384
upperneck -3.37322 1.77187 4.31117
head -2.14522 0.814472 1.96066
rclavicle -6.89146e-015 -1.31198e-014
rhumerus -36.5357 -20.6177 -77.7845
rradius 23.0212
rwrist 17.3337
rhand -15.2702 11.9476
rfingers 7.12502
rthumb 10.9042 -17.7493
lclavicle -6.89146e-015 -1.31198e-014
lhumerus -18.5193 22.1 85.3295
lradius 21.6769
lwrist -35.2651
lhand -6.9119 25.3586
lfingers 7.12502
lthumb 18.9556 54.455
rfemur -44.0507 3.36888 19.1712
rtibia 39.8764
rfoot -5.78014 -10.9171
rtoes -3.62384
lfemur -15.4661 -11.3292 -26.0412
ltibia 26.6233
lfoot -22.6531 7.01095
ltoes 4.19887
458
root 35.2402 16.4555 -0.855426 -128.4 -86.578 143.889
lowerback -12.7568 -1.31767 -5.70309
upperback -4.65479 -1.28787 0.939318
thorax 2.38439 -0.691488 4.01078
lowerneck 5.61208 1.31891 -3.60662
upperneck -3.64737 1.70585 4.62008
head -2.22138 0.771477 2.0554
rclavicle 6.3285e-015 1.78906e-015
rhumerus -36.4253 -20.6916 -78.1547
rradius 23.1677
rwrist 17.1591
rhand -15.3515 11.7977
rfingers 7.12502
rthumb 10.8257 -17.9033
lclavicle 6.3285e-015 1.78906e-015
lhumerus -17.5164 20.716 85.756
lradius 22.1254
lwrist -34.1754
lhand -13.8172 18.0394
lfingers 7.12502
lthumb 12.3053 47.6574
rfemur -43.9987 4.04846 18.8097
rtibia 37.0395
rfoot -5.57494 -10.8483
rtoes -3.63905
lfemur -14.4689 -11.1902 -26.2714
ltibia 26.063
lfoot -22.2433 7.12292
ltoes 2.31917
459
root 35.1131 16.4473 -0.858795 -127.389 -86.5188 142.717
lowerback -12.5296 -1.32859 -6.03243
upperback -4.53216 -1.26808 1.0477
thorax 2.3945 -0.678464 4.31676
lowerneck 5.79234 1.26243 -3.70905
upperneck -4.20681 1.63342 4.61092
head -2.43869 0.733616 2.07914
rclavicle -1.21057e-014 -2.5842e-015
rhumerus -36.2537 -20.5306 -78.0368
rradius 23.1717
rwrist 17.0195
rhand -15.2774 11.878
rfingers 7.12502
rthumb 10.8972 -17.8192
lclavicle -1.21057e-014 -2.5842e-015
lhumerus -16.834 19.8918 86.4581
lradius 22.629
lwrist -33.2748
lhand -4.69886 25.3782
lfingers 7.12502
lthumb 21.0827 54.2521
rfemur -43.8789 4.78619 18.3192
rtibia 34.0636
rfoot -5.31071 -10.6425
rtoes -3.83545
lfemur -13.5127 -11.0831 -26.5688
ltibia 25.5932
lfoot -22.2439 7.32423
ltoes 1.267
460
root 34.9908 16.43 -0.861608 -124.794 -86.4907 140.174
lowerback -12.4956 -1.3223 -6.14243
upperback -4.39829 -1.23458 0.943432
thorax 2.51248 -0.665591 4.27356
lowerneck 5.67122 1.14892 -3.38345
upperneck -4.73313 1.5139 4.4201
head -2.57788 0.673073 1.96565
rclavicle -4.11236e-015 6.75868e-015
rhumerus -36.0096 -20.6211 -78.1985
rradius 23.2205
rwrist 16.9038
rhand -15.1615 11.9542
rfingers 7.12502
rthumb 11.009 -17.7371
lclavicle -4.11236e-015 6.75868e-015
lhumerus -16.005 19.0145 86.854
lradius 23.0494
lwrist -32.8268
lhand -5.7087 23.6612
lfingers 7.12502
lthumb 20.1124 52.6402
rfemur -43.9463 5.27441 17.8207
rtibia 30.9715
rfoot -4.96337 -10.1089
rtoes -4.10429
lfemur -12.8825 -11.1388 -26.8113
ltibia 25.1889
lfoot -22.3245 7.34244
ltoes 2.02628
